<svg xmlns="http://www.w3.org/2000/svg" version="1.1" xmlns:xlink="http://www.w3.org/1999/xlink" xmlns:svgjs="http://svgjs.dev/svgjs" width="2000" height="2699" viewBox="0 0 2000 2699"><g transform="matrix(1,0,0,1,-1.573770491802975,1.0927125506073025)"><svg viewBox="0 0 183 247" data-background-color="#ebefd8" preserveAspectRatio="xMidYMid meet" height="2699" width="2000" xmlns="http://www.w3.org/2000/svg" xmlns:xlink="http://www.w3.org/1999/xlink"><g id="tight-bounds" transform="matrix(1,0,0,1,0.14399999999997704,-0.09999999999999432)"><svg viewBox="0 0 182.71156738197425 247.2" height="247.2" width="182.71156738197425"><g><svg></svg></g><g><svg viewBox="0 0 182.71156738197425 247.2" height="247.2" width="182.71156738197425"><g transform="matrix(1,0,0,1,0,47.215199999999996)"><svg viewBox="0 0 182.71156738197425 152.7696" height="152.7696" width="182.71156738197425"><g><svg viewBox="0 0 182.71156738197425 152.7696" height="152.7696" width="182.71156738197425"><g><svg viewBox="0 0 182.71156738197425 152.7696" height="152.7696" width="182.71156738197425"><g><svg viewBox="0 0 182.71156738197425 152.7696" height="152.7696" width="182.71156738197425"><g id="textblocktransform"><svg viewBox="0 0 182.71156738197425 152.7696" height="152.7696" width="182.71156738197425" id="textblock"><g><svg viewBox="0 0 182.71156738197425 152.7696" height="152.7696" width="182.71156738197425"><g transform="matrix(1,0,0,1,0,0)"><svg width="182.71156738197425" viewBox="0 -34.95 41.8 34.95" height="152.7696" data-palette-color="#d52814"><path d="M0-2.15L4.85-2.15 4.85-34.95 10.75-34.95 31.05-8.85 31.05-34.95 36.95-34.95 36.95-2.15 41.8-2.15 41.8 0 30.55 0 10.75-25.5 10.75 0 0 0 0-2.15Z" opacity="1" transform="matrix(1,0,0,1,0,0)" fill="#d52814" class="wordmark-text-0" data-fill-palette-color="primary" id="text-0"></path></svg></g></svg></g></svg></g></svg></g><g></g></svg></g></svg></g></svg></g><path d="M0 41.215L0 1 182.712 1 182.712 41.215 168.935 41.215 168.935 14.777 13.777 14.777 13.777 41.215 0 41.215M0 205.985L0 246.2 182.712 246.2 182.712 205.985 168.935 205.985 168.935 232.423 13.777 232.423 13.777 205.985 0 205.985" fill="#d52814" stroke="transparent" data-fill-palette-color="primary"></path></svg></g><defs></defs></svg><rect width="182.71156738197425" height="247.2" fill="none" stroke="none" visibility="hidden"></rect></g></svg></g></svg>